# xmcd
#
# Track frame offsets:
#	150
#	9633
#	22407
#	33039
#	42787
#	62798
#	79094
#	93752
#	105371
#	120793
#	128245
#	141766
#	155345
#	168469
#	181055
#	195608
#	202623
#	213278
#	222528
#	233859
#	246426
#	253760
#	264710
#	271116
#	291542
#
# Disc length: 3988 seconds
#
# Revision: 1
# Processed by: cddbd v1.5.2PL0 Copyright (c) Steve Scherf et al.
# Submitted via: audiograbber 1.83.01
#
DISCID=5e0f9219
DTITLE=www.RuralRhythm.com - Power Picks 25 Hymns from the Old Country Church
DYEAR=2013
DGENRE=Gospel
TTITLE0=There's Power In The Blood
TTITLE1=Over In Gloryland
TTITLE2=Take My Hand Precious LORD
TTITLE3=Church In The Wildwood
TTITLE4=Precious Memories
TTITLE5=Nothing But The Blood
TTITLE6=The Old Rugged Cross
TTITLE7=Somebody Touched Me
TTITLE8=What A Friend We Have In JESUS
TTITLE9=I Saw The Light
TTITLE10=Rock Of Ages
TTITLE11=When The Redeemed Are Gathering In
TTITLE12=In The Garden
TTITLE13=Are You Washed In The Blood
TTITLE14=How Beautiful Heaven Must Be
TTITLE15=A Beautiful Life
TTITLE16=An Old Account Settled
TTITLE17=Just A Closer Walk With Thee
TTITLE18=When We All Get To Heaven
TTITLE19=JESUS Loves Me
TTITLE20=O Why Not Tonight
TTITLE21=Drifting Too Far from The Shore
TTITLE22=Amen
TTITLE23=Let's Meet By The River
TTITLE24=Kneel At The Cross
EXTD=
EXTT0=
EXTT1=
EXTT2=
EXTT3=
EXTT4=
EXTT5=
EXTT6=
EXTT7=
EXTT8=
EXTT9=
EXTT10=
EXTT11=
EXTT12=
EXTT13=
EXTT14=
EXTT15=
EXTT16=
EXTT17=
EXTT18=
EXTT19=
EXTT20=
EXTT21=
EXTT22=
EXTT23=
EXTT24=
PLAYORDER=
